<svg width="40" height="46" viewBox="0 0 40 46" fill="none" xmlns="http://www.w3.org/2000/svg">
<path d="M5.71429 2.85693C2.5625 2.85693 0 5.41943 0 8.57122V37.1426C0 40.2944 2.5625 42.8569 5.71429 42.8569H34.2857C37.4375 42.8569 40 40.2944 40 37.1426V8.57122C40 5.41943 37.4375 2.85693 34.2857 2.85693H5.71429ZM32.2411 10.3569L22.9732 20.9462L33.875 35.3569H25.3393L18.6607 26.6159L11.0089 35.3569H6.76786L16.6786 24.0266L6.22321 10.3569H14.9732L21.0179 18.348L28 10.3569H32.2411ZM28.8661 32.8212L13.6964 12.7587H11.1696L26.5089 32.8212H28.8571H28.8661Z" fill="black"/>
</svg>
