<svg width="40" height="41" viewBox="0 0 40 41" fill="none" xmlns="http://www.w3.org/2000/svg">
<path d="M35.5556 0.856934H4.44444C2 0.856934 0 2.85693 0 5.30138V36.4125C0 38.8592 2 40.8569 4.44444 40.8569H20V25.3014H15.5556V19.8014H20V15.2458C20 10.4369 22.6933 7.05916 28.3689 7.05916L32.3756 7.0636V12.8525H29.7156C27.5067 12.8525 26.6667 14.5103 26.6667 16.048V19.8036H32.3733L31.1111 25.3014H26.6667V40.8569H35.5556C38 40.8569 40 38.8592 40 36.4125V5.30138C40 2.85693 38 0.856934 35.5556 0.856934Z" fill="#1877F2"/>
</svg>
