<svg width="40" height="41" viewBox="0 0 40 41" fill="none" xmlns="http://www.w3.org/2000/svg">
<g clip-path="url(#clip0_79_32485)">
<path d="M30.625 0.856934H9.375C4.19733 0.856934 0 5.05426 0 10.2319V31.4819C0 36.6596 4.19733 40.8569 9.375 40.8569H30.625C35.8027 40.8569 40 36.6596 40 31.4819V10.2319C40 5.05426 35.8027 0.856934 30.625 0.856934Z" fill="url(#paint0_radial_79_32485)"/>
<path d="M30.625 0.856934H9.375C4.19733 0.856934 0 5.05426 0 10.2319V31.4819C0 36.6596 4.19733 40.8569 9.375 40.8569H30.625C35.8027 40.8569 40 36.6596 40 31.4819V10.2319C40 5.05426 35.8027 0.856934 30.625 0.856934Z" fill="url(#paint1_radial_79_32485)"/>
<path d="M20.0014 5.23193C15.758 5.23193 15.2253 5.25053 13.5588 5.32631C11.8953 5.40256 10.7598 5.66584 9.76641 6.05225C8.73859 6.45131 7.86688 6.98521 6.99844 7.85396C6.12922 8.72256 5.59531 9.59428 5.195 10.6216C4.8075 11.6154 4.54391 12.7513 4.46906 14.414C4.39453 16.0807 4.375 16.6135 4.375 20.8571C4.375 25.1007 4.39375 25.6316 4.46938 27.2982C4.54594 28.9616 4.80922 30.0971 5.19531 31.0905C5.59469 32.1183 6.12859 32.9901 6.99734 33.8585C7.86563 34.7277 8.73734 35.2629 9.76438 35.6619C10.7586 36.0483 11.8942 36.3116 13.5573 36.3879C15.2241 36.4637 15.7563 36.4822 19.9995 36.4822C24.2434 36.4822 24.7744 36.4637 26.4409 36.3879C28.1044 36.3116 29.2411 36.0483 30.2353 35.6619C31.2627 35.2629 32.1331 34.7277 33.0012 33.8585C33.8705 32.9901 34.4042 32.1183 34.8047 31.091C35.1887 30.0971 35.4525 28.9613 35.5306 27.2985C35.6055 25.6319 35.625 25.1007 35.625 20.8571C35.625 16.6135 35.6055 16.081 35.5306 14.4143C35.4525 12.7508 35.1887 11.6155 34.8047 10.6221C34.4042 9.59428 33.8705 8.72256 33.0012 7.85396C32.1322 6.9849 31.263 6.451 30.2344 6.0524C29.2383 5.66584 28.1022 5.4024 26.4387 5.32631C24.772 5.25053 24.2414 5.23193 19.9966 5.23193H20.0014ZM18.5997 8.04771C19.0158 8.04709 19.48 8.04771 20.0014 8.04771C24.1734 8.04771 24.6678 8.06272 26.3153 8.13756C27.8387 8.20725 28.6656 8.46178 29.2164 8.67568C29.9456 8.95881 30.4655 9.2974 31.012 9.84443C31.5589 10.3913 31.8973 10.9121 32.1813 11.6413C32.3952 12.1913 32.65 13.0182 32.7194 14.5416C32.7942 16.1888 32.8105 16.6835 32.8105 20.8535C32.8105 25.0235 32.7942 25.5183 32.7194 27.1654C32.6497 28.6888 32.3952 29.5157 32.1813 30.0658C31.8981 30.7951 31.5589 31.3143 31.012 31.8608C30.4652 32.4077 29.9459 32.7462 29.2164 33.0294C28.6663 33.2443 27.8387 33.4982 26.3153 33.5679C24.6681 33.6427 24.1734 33.659 20.0014 33.659C15.8292 33.659 15.3347 33.6427 13.6877 33.5679C12.1642 33.4976 11.3373 33.243 10.7861 33.0291C10.057 32.7458 9.53609 32.4074 8.98922 31.8605C8.44234 31.3137 8.10391 30.7941 7.82 30.0646C7.60609 29.5144 7.35125 28.6876 7.28188 27.1641C7.20703 25.5169 7.19203 25.0222 7.19203 20.8496C7.19203 16.6771 7.20703 16.1849 7.28188 14.5377C7.35156 13.0143 7.60609 12.1874 7.82 11.6366C8.10328 10.9074 8.44234 10.3866 8.98938 9.83975C9.53625 9.29287 10.057 8.95428 10.7862 8.67053C11.337 8.45568 12.1642 8.20178 13.6877 8.13178C15.1291 8.06662 15.6877 8.04709 18.5997 8.04381V8.04771ZM28.342 10.6421C27.3069 10.6421 26.467 11.4812 26.467 12.5165C26.467 13.5516 27.3069 14.3915 28.342 14.3915C29.3772 14.3915 30.217 13.5516 30.217 12.5165C30.217 11.4813 29.3772 10.6415 28.342 10.6415V10.6421ZM20.0014 12.8329C15.5702 12.8329 11.9773 16.4257 11.9773 20.8571C11.9773 25.2885 15.5702 28.8796 20.0014 28.8796C24.4328 28.8796 28.0244 25.2885 28.0244 20.8571C28.0244 16.4258 24.4325 12.8329 20.0011 12.8329H20.0014ZM20.0014 15.6487C22.8778 15.6487 25.2098 17.9804 25.2098 20.8571C25.2098 23.7335 22.8778 26.0655 20.0014 26.0655C17.1248 26.0655 14.7931 23.7335 14.7931 20.8571C14.7931 17.9804 17.1248 15.6487 20.0014 15.6487Z" fill="white"/>
</g>
<defs>
<radialGradient id="paint0_radial_79_32485" cx="0" cy="0" r="1" gradientUnits="userSpaceOnUse" gradientTransform="translate(10.625 43.9377) rotate(-90) scale(39.643 36.8711)">
<stop stop-color="#FFDD55"/>
<stop offset="0.1" stop-color="#FFDD55"/>
<stop offset="0.5" stop-color="#FF543E"/>
<stop offset="1" stop-color="#C837AB"/>
</radialGradient>
<radialGradient id="paint1_radial_79_32485" cx="0" cy="0" r="1" gradientUnits="userSpaceOnUse" gradientTransform="translate(-6.70016 3.73834) rotate(78.681) scale(17.7206 73.045)">
<stop stop-color="#3771C8"/>
<stop offset="0.128" stop-color="#3771C8"/>
<stop offset="1" stop-color="#6600FF" stop-opacity="0"/>
</radialGradient>
<clipPath id="clip0_79_32485">
<rect width="40" height="40" fill="white" transform="translate(0 0.856934)"/>
</clipPath>
</defs>
</svg>
