<svg width="40" height="41" viewBox="0 0 40 41" fill="none" xmlns="http://www.w3.org/2000/svg">
<g clip-path="url(#clip0_79_32482)">
<path d="M40 20.8569C40 9.81131 31.0456 0.856934 20 0.856934C8.95437 0.856934 0 9.81131 0 20.8569C0 30.8394 7.31375 39.1137 16.875 40.614V26.6382H11.7969V20.8569H16.875V16.4507C16.875 11.4382 19.8609 8.66943 24.4294 8.66943C26.6175 8.66943 28.9062 9.06006 28.9062 9.06006V13.9819H26.3844C23.8998 13.9819 23.125 15.5237 23.125 17.1054V20.8569H28.6719L27.7852 26.6382H23.125V40.614C32.6862 39.1137 40 30.8396 40 20.8569Z" fill="#1877F2"/>
<path d="M27.7852 26.6382L28.6719 20.8569H23.125V17.1054C23.125 15.5235 23.8998 13.9819 26.3844 13.9819H28.9062V9.06006C28.9062 9.06006 26.6175 8.66943 24.4292 8.66943C19.8609 8.66943 16.875 11.4382 16.875 16.4507V20.8569H11.7969V26.6382H16.875V40.614C17.9088 40.776 18.9536 40.8572 20 40.8569C21.0464 40.8572 22.0912 40.776 23.125 40.614V26.6382H27.7852Z" fill="white"/>
</g>
<defs>
<clipPath id="clip0_79_32482">
<rect width="40" height="40" fill="white" transform="translate(0 0.856934)"/>
</clipPath>
</defs>
</svg>
