<svg width="40" height="41" viewBox="0 0 40 41" fill="none" xmlns="http://www.w3.org/2000/svg">
<path d="M5.71429 0.857147C2.5625 0.857147 0 3.41965 0 6.57143V35.1429C0 38.2946 2.5625 40.8571 5.71429 40.8571H34.2857C37.4375 40.8571 40 38.2946 40 35.1429V6.57143C40 3.41965 37.4375 0.857147 34.2857 0.857147H5.71429ZM32.2411 8.35715L22.9732 18.9464L33.875 33.3571H25.3393L18.6607 24.6161L11.0089 33.3571H6.76786L16.6786 22.0268L6.22321 8.35715H14.9732L21.0179 16.3482L28 8.35715H32.2411ZM28.8661 30.8214L13.6964 10.7589H11.1696L26.5089 30.8214H28.8571H28.8661Z" fill="black"/>
</svg>
