<svg width="216" height="60" viewBox="0 0 216 60" fill="none" xmlns="http://www.w3.org/2000/svg">
<path d="M15.6924 0H3.19238C2.52934 0 1.89346 0.263392 1.42462 0.732233C0.955775 1.20107 0.692383 1.83696 0.692383 2.5L0.692383 15C0.692383 15.663 0.955775 16.2989 1.42462 16.7678C1.89346 17.2366 2.52934 17.5 3.19238 17.5H15.6924C16.3554 17.5 16.9913 17.2366 17.4601 16.7678C17.929 16.2989 18.1924 15.663 18.1924 15V2.5C18.1924 1.83696 17.929 1.20107 17.4601 0.732233C16.9913 0.263392 16.3554 0 15.6924 0ZM15.6924 21.25H3.19238C2.52934 21.25 1.89346 21.5134 1.42462 21.9822C0.955775 22.4511 0.692383 23.087 0.692383 23.75L0.692383 36.25C0.692383 36.913 0.955775 37.5489 1.42462 38.0178C1.89346 38.4866 2.52934 38.75 3.19238 38.75H15.6924C16.3554 38.75 16.9913 38.4866 17.4601 38.0178C17.929 37.5489 18.1924 36.913 18.1924 36.25V23.75C18.1924 23.087 17.929 22.4511 17.4601 21.9822C16.9913 21.5134 16.3554 21.25 15.6924 21.25ZM39.4424 36.25V23.75C39.4424 23.087 39.179 22.4511 38.7101 21.9822C38.2413 21.5134 37.6054 21.25 36.9424 21.25H24.4424C23.7793 21.25 23.1435 21.5134 22.6746 21.9822C22.2058 22.4511 21.9424 23.087 21.9424 23.75V36.25C21.9424 36.913 22.2058 37.5489 22.6746 38.0178C23.1435 38.4866 23.7793 38.75 24.4424 38.75H36.9424C37.6054 38.75 38.2413 38.4866 38.7101 38.0178C39.179 37.5489 39.4424 36.913 39.4424 36.25ZM39.4424 15V2.5C39.4424 1.83696 39.179 1.20107 38.7101 0.732233C38.2413 0.263392 37.6054 0 36.9424 0L24.4424 0C23.7793 0 23.1435 0.263392 22.6746 0.732233C22.2058 1.20107 21.9424 1.83696 21.9424 2.5V15C21.9424 15.663 22.2058 16.2989 22.6746 16.7678C23.1435 17.2366 23.7793 17.5 24.4424 17.5H36.9424C37.6054 17.5 38.2413 17.2366 38.7101 16.7678C39.179 16.2989 39.4424 15.663 39.4424 15ZM58.1924 0H45.6924C45.0293 0 44.3935 0.263392 43.9246 0.732233C43.4558 1.20107 43.1924 1.83696 43.1924 2.5V15C43.1924 15.663 43.4558 16.2989 43.9246 16.7678C44.3935 17.2366 45.0293 17.5 45.6924 17.5H58.1924C58.8554 17.5 59.4913 17.2366 59.9602 16.7678C60.429 16.2989 60.6924 15.663 60.6924 15V2.5C60.6924 1.83696 60.429 1.20107 59.9602 0.732233C59.4913 0.263392 58.8554 0 58.1924 0ZM45.6924 38.75H58.1924C58.8554 38.75 59.4913 38.4866 59.9602 38.0178C60.429 37.5489 60.6924 36.913 60.6924 36.25V23.75C60.6924 23.087 60.429 22.4511 59.9602 21.9822C59.4913 21.5134 58.8554 21.25 58.1924 21.25H45.6924C45.0293 21.25 44.3935 21.5134 43.9246 21.9822C43.4558 22.4511 43.1924 23.087 43.1924 23.75V36.25C43.1924 36.913 43.4558 37.5489 43.9246 38.0178C44.3935 38.4866 45.0293 38.75 45.6924 38.75ZM45.6924 60H58.1924C58.8554 60 59.4913 59.7366 59.9602 59.2678C60.429 58.7989 60.6924 58.163 60.6924 57.5V45C60.6924 44.337 60.429 43.7011 59.9602 43.2322C59.4913 42.7634 58.8554 42.5 58.1924 42.5H45.6924C45.0293 42.5 44.3935 42.7634 43.9246 43.2322C43.4558 43.7011 43.1924 44.337 43.1924 45V57.5C43.1924 58.163 43.4558 58.7989 43.9246 59.2678C44.3935 59.7366 45.0293 60 45.6924 60ZM0.692383 45V57.5C0.692383 58.163 0.955775 58.7989 1.42462 59.2678C1.89346 59.7366 2.52934 60 3.19238 60H15.6924C16.3554 60 16.9913 59.7366 17.4601 59.2678C17.929 58.7989 18.1924 58.163 18.1924 57.5V45C18.1924 44.337 17.929 43.7011 17.4601 43.2322C16.9913 42.7634 16.3554 42.5 15.6924 42.5H3.19238C2.52934 42.5 1.89346 42.7634 1.42462 43.2322C0.955775 43.7011 0.692383 44.337 0.692383 45ZM21.9424 45V57.5C21.9424 58.163 22.2058 58.7989 22.6746 59.2678C23.1435 59.7366 23.7793 60 24.4424 60H36.9424C37.6054 60 38.2413 59.7366 38.7101 59.2678C39.179 58.7989 39.4424 58.163 39.4424 57.5V45C39.4424 44.337 39.179 43.7011 38.7101 43.2322C38.2413 42.7634 37.6054 42.5 36.9424 42.5H24.4424C23.7793 42.5 23.1435 42.7634 22.6746 43.2322C22.2058 43.7011 21.9424 44.337 21.9424 45Z" fill="#F8F9FA"/>
<path d="M77.0516 59.024C75.8996 59.024 74.9183 58.5973 74.1076 57.744C73.3396 56.8907 72.9556 55.8453 72.9556 54.608C72.9556 53.4133 73.361 52.3893 74.1716 51.536C75.025 50.64 75.985 50.192 77.0516 50.192C78.2036 50.192 79.1636 50.64 79.9316 51.536C80.6996 52.3893 81.0836 53.4133 81.0836 54.608C81.0836 55.8453 80.6783 56.8907 79.8676 57.744C79.0996 58.5973 78.161 59.024 77.0516 59.024ZM103.944 16.016C102.578 16.0587 101.576 16.3573 100.936 16.912C100.296 17.424 99.8903 18.192 99.7196 19.216C99.549 20.1973 99.4636 21.4987 99.4636 23.12V49.424C99.4636 50.576 99.4423 51.6213 99.3996 52.56C99.3996 53.456 99.357 54.1813 99.2716 54.736C99.997 54.6507 100.786 54.608 101.64 54.608C102.536 54.5653 103.304 54.5227 103.944 54.48V58H88.1996V55.184C89.6076 55.0987 90.6103 54.8 91.2076 54.288C91.8476 53.776 92.253 53.008 92.4236 51.984C92.5943 50.96 92.6796 49.6587 92.6796 48.08V21.456C92.6796 20.5173 92.701 19.6213 92.7436 18.768C92.7863 17.872 92.829 17.104 92.8716 16.464C92.1463 16.5067 91.357 16.5493 90.5036 16.592C89.6503 16.6347 88.8823 16.6773 88.1996 16.72V13.2H103.944V16.016ZM134.444 58.64C132.694 54.6293 130.945 50.6187 129.196 46.608C127.446 42.5973 125.718 38.5653 124.012 34.512C123.5 33.3173 122.966 32.016 122.412 30.608C121.857 29.2 121.302 27.7067 120.748 26.128C120.193 24.5493 119.66 22.9493 119.148 21.328C119.148 22.4373 119.148 23.504 119.148 24.528C119.148 25.552 119.148 26.5333 119.148 27.472C119.105 28.7947 119.062 30.352 119.02 32.144C118.977 33.8933 118.913 35.7493 118.828 37.712C118.785 39.6747 118.742 41.6373 118.7 43.6C118.7 45.52 118.678 47.376 118.636 49.168C118.636 50.192 118.614 51.1947 118.572 52.176C118.529 53.1573 118.465 54.0107 118.38 54.736C119.148 54.6507 119.958 54.608 120.812 54.608C121.708 54.5653 122.497 54.5227 123.18 54.48V58H110.188V55.184C111.382 55.1413 112.3 54.9067 112.94 54.48C113.58 54.0533 114.006 53.4133 114.22 52.56C114.476 51.7067 114.625 50.6613 114.668 49.424L115.564 21.776C115.606 20.8373 115.649 19.8987 115.692 18.96C115.734 18.0213 115.777 17.1893 115.82 16.464C115.052 16.5067 114.241 16.5493 113.388 16.592C112.534 16.592 111.788 16.6133 111.148 16.656V13.2H122.348L132.908 38.416C133.42 39.568 133.932 40.8053 134.444 42.128C134.956 43.408 135.468 44.688 135.98 45.968C136.534 47.2053 137.025 48.3787 137.452 49.488H137.58C138.049 48.208 138.582 46.8 139.18 45.264C139.777 43.728 140.289 42.3627 140.716 41.168C142.55 36.56 144.406 31.952 146.284 27.344C148.204 22.736 150.081 18.0213 151.916 13.2H163.18V16.016C162.156 16.016 161.281 16.208 160.556 16.592C159.873 16.9333 159.361 17.5733 159.02 18.512C158.721 19.4507 158.614 20.7947 158.7 22.544L160.108 50.128C160.193 50.9813 160.214 51.8133 160.172 52.624C160.172 53.4347 160.15 54.1173 160.108 54.672C160.876 54.6293 161.686 54.608 162.54 54.608C163.436 54.5653 164.204 54.5227 164.844 54.48V58H149.356V55.184C150.593 55.1413 151.532 54.8853 152.172 54.416C152.854 53.9467 153.302 53.2213 153.516 52.24C153.729 51.216 153.793 49.8933 153.708 48.272L152.684 29.648C152.641 29.008 152.598 28.2613 152.556 27.408C152.513 26.512 152.449 25.5947 152.364 24.656C152.321 23.6747 152.278 22.736 152.236 21.84C152.108 22.1387 151.98 22.4587 151.852 22.8C151.724 23.0987 151.596 23.44 151.468 23.824L137.708 58.64H134.444ZM191.257 59.024C186.905 59.024 183.086 58.0853 179.801 56.208C176.516 54.3307 173.977 51.7067 172.185 48.336C170.393 44.9227 169.497 40.9547 169.497 36.432C169.497 33.4453 169.945 30.5227 170.841 27.664C171.78 24.8053 173.166 22.2027 175.001 19.856C176.878 17.5093 179.204 15.6533 181.977 14.288C184.793 12.88 188.057 12.176 191.769 12.176C193.177 12.176 194.649 12.304 196.185 12.56C197.721 12.816 199.214 13.2 200.665 13.712C202.158 14.224 203.502 14.8427 204.697 15.568L204.441 12.624H208.409V27.344H205.465C205.252 24.784 204.526 22.6293 203.289 20.88C202.094 19.088 200.537 17.744 198.617 16.848C196.74 15.9093 194.649 15.44 192.345 15.44C190.084 15.44 188.014 15.952 186.137 16.976C184.302 17.9573 182.702 19.344 181.337 21.136C179.972 22.8853 178.905 24.9547 178.137 27.344C177.412 29.7333 177.049 32.2933 177.049 35.024C177.049 38.9493 177.689 42.448 178.969 45.52C180.292 48.5493 182.148 50.9387 184.537 52.688C186.926 54.4373 189.721 55.312 192.921 55.312C193.945 55.312 195.054 55.2267 196.249 55.056C197.486 54.8427 198.702 54.544 199.897 54.16C201.134 53.7333 202.244 53.2 203.225 52.56V45.392C203.225 44.3253 203.225 43.28 203.225 42.256C203.268 41.1893 203.289 40.208 203.289 39.312C202.606 39.3547 201.838 39.3973 200.985 39.44C200.132 39.4827 199.385 39.5253 198.745 39.568V36.048H214.041V38.864C213.017 38.864 212.185 39.0987 211.545 39.568C210.948 40.0373 210.5 40.6347 210.201 41.36C209.945 42.0427 209.774 42.7893 209.689 43.6C209.604 44.368 209.561 45.0933 209.561 45.776V55.76H207.897C207.001 55.76 205.956 55.9093 204.761 56.208C203.566 56.464 202.222 56.8693 200.729 57.424C199.406 57.8933 197.892 58.2773 196.185 58.576C194.478 58.8747 192.836 59.024 191.257 59.024Z" fill="#F8F9FA"/>
</svg>
